<?xml version="1.0" encoding="UTF-8" standalone="no"?>
<!-- Generator: Adobe Illustrator 16.0.4, SVG Export Plug-In . SVG Version: 6.00 Build 0)  -->
<!DOCTYPE svg  PUBLIC '-//W3C//DTD SVG 1.1//EN'  'http://www.w3.org/Graphics/SVG/1.1/DTD/svg11.dtd'>
<svg id="Layer_1" xmlns="http://www.w3.org/2000/svg" xml:space="preserve" height="178.3px" viewBox="416.812 410.99 167.067 178.301" width="167.07px" version="1.1" y="0px" x="0px" xmlns:xlink="http://www.w3.org/1999/xlink" enable-background="new 416.812 410.99 167.067 178.301">
<path d="m466.31 500.7l-12.438 25.903 27.151 13.023 12.299-25.87c6.229-12.983-2.952-23.041-12.789-23.041-5.32 0.01-10.85 2.96-14.22 9.99" fill="#00A2AC"/>
<path d="m416.81 450.23l21.567 61.326 11.622-24.675c9.26-19.282 29.249-26.118 45.518-18.318 12.645 6.053 20.625 16.181 19.753 30.389l-1.169 5.873c8.578-10.156 20.284-8.497 31.5-4.041 3.935 1.572 16.654 6.478 16.654 6.478l-33.84-96.27-111.6 39.24z" fill="#00A2AC"/>
<path d="m509.08 534.64l-8.337 17.383 42.027 20.148-6.364 13.263 47.473-16.688-16.171-46-4.939 10.174s-18.764-8.18-27.929-11.097c-2.747-0.854-5.274-1.271-7.618-1.271-7.98 0.02-13.73 4.89-18.14 14.1" fill="#00A2AC"/>
<polygon points="466.84 589.29 467.63 589.29 503.7 576.61 454 552.76" fill="#00A2AC"/>
</svg>
